<svg width="73" height="73" viewBox="0 0 73 73" fill="none" xmlns="http://www.w3.org/2000/svg">
<path d="M14.5938 36.0537L6.00377 32.3591C4.77223 31.8665 4.04931 30.9736 3.83502 29.6805C3.61827 28.3874 3.97172 27.279 4.89538 26.3553L16.5335 14.7173C17.3955 13.8552 18.4116 13.2394 19.5815 12.87C20.7515 12.5005 21.9522 12.4389 23.1838 12.6852L27.9868 13.7012C24.7232 17.5806 22.1222 21.1065 20.1837 24.279C18.2428 27.449 16.3795 31.3739 14.5938 36.0537ZM68.9048 0.0311258C69.3974 0.0311258 69.89 0.15428 70.3826 0.400588C70.8753 0.646897 71.3063 0.954782 71.6758 1.32424C72.0452 1.69371 72.3531 2.12475 72.5994 2.61736C72.8457 3.10998 72.9689 3.6026 72.9689 4.09521C73.2152 9.82189 71.9997 15.7641 69.3223 21.9218C66.6424 28.0795 62.8702 33.5906 58.0056 38.4552C54.6805 41.7804 51.4785 44.443 48.3996 46.443C45.3208 48.4455 41.6877 50.3396 37.5005 52.1254C36.7 52.4332 35.8847 52.5872 35.0546 52.5872C34.2221 52.5872 33.4979 52.2793 32.8822 51.6635L21.3365 40.1178C20.7207 39.5021 20.4128 38.7779 20.4128 37.9454C20.4128 37.1153 20.5668 36.3 20.8746 35.4995C22.6604 31.3739 24.5545 27.7556 26.557 24.6447C28.557 21.5363 31.2196 18.3195 34.5448 14.9944C39.4093 10.1298 44.9205 6.35756 51.0782 3.67772C57.2359 1.00035 63.1781 -0.215183 68.9048 0.0311258ZM45.4439 27.5561C46.8602 28.9724 48.6003 29.6805 50.6644 29.6805C52.726 29.6805 54.4649 28.9724 55.8812 27.5561C57.2975 26.1398 58.0056 24.3997 58.0056 22.3356C58.0056 20.274 57.2975 18.535 55.8812 17.1188C54.4649 15.7025 52.726 14.9944 50.6644 14.9944C48.6003 14.9944 46.8602 15.7025 45.4439 17.1188C44.0276 18.535 43.3195 20.274 43.3195 22.3356C43.3195 24.3997 44.0276 26.1398 45.4439 27.5561ZM36.9463 58.4062C41.6261 56.6205 45.5671 54.7584 48.7691 52.8199C51.9711 50.879 55.5118 48.2768 59.3911 45.0132L60.3148 49.8162C60.5611 51.0478 60.4995 52.2645 60.1301 53.4665C59.7606 54.666 59.1448 55.6968 58.2827 56.5589L46.6447 68.197C45.721 69.1206 44.6126 69.4593 43.3195 69.213C42.0264 68.9667 41.1335 68.2278 40.6409 66.9962L36.9463 58.4062ZM6.92743 50.4628C9.08262 48.3076 11.6997 47.214 14.7785 47.1819C17.8574 47.1524 20.4744 48.2152 22.6296 50.3704C24.7848 52.5256 25.8624 55.1426 25.8624 58.2215C25.8624 61.3003 24.7848 63.9174 22.6296 66.0726C21.0902 67.612 18.5199 68.9359 14.9189 70.0443C11.3154 71.1527 6.34244 72.1379 0 73C0.86208 66.6576 1.84731 61.7006 2.9557 58.1291C4.06409 54.5577 5.388 52.0022 6.92743 50.4628Z" fill="white"/>
</svg>
