<svg width="75" height="75" viewBox="0 0 75 75" fill="none" xmlns="http://www.w3.org/2000/svg">
<path d="M69.4687 37.5C68.0203 33.5109 64.9266 30.4172 61.0359 29.0016L60.9375 21.0938C60.9375 9.375 49.3594 0 35.1562 0C20.9531 0 9.375 9.375 9.375 21.0938V28.9687C3.87656 30.9516 0.01875 36.1172 0 42.1875V46.875C0 54.6422 6.29531 60.9375 14.0625 60.9375H18.75V28.125H14.0625V21.0938C14.0625 12.0469 23.4375 4.6875 35.1562 4.6875C46.875 4.6875 56.25 12.0469 56.25 21.0938V28.125H51.5625V60.9375H56.25C64.0172 60.9375 70.3125 54.6422 70.3125 46.875V54.9844C70.3125 63.45 63.45 70.3125 54.9844 70.3125H46.875C46.875 67.725 44.775 65.625 42.1875 65.625H37.5C34.9125 65.625 32.8125 67.725 32.8125 70.3125C32.8125 72.9 34.9125 75 37.5 75H54.9844C66.0375 75 75 66.0375 75 54.9844V37.5H69.4687Z" fill="white"/>
</svg>
