<svg width="43" height="73" viewBox="0 0 43 73" fill="none" xmlns="http://www.w3.org/2000/svg">
<path d="M23.109 32.0389C13.7436 29.6461 10.7318 27.1722 10.7318 23.3194C10.7318 18.8989 14.8988 15.8167 21.8713 15.8167C29.2151 15.8167 31.9381 19.2639 32.1857 24.3333H41.3035C41.0147 17.3578 36.6827 10.95 28.0599 8.88167V0H15.6827V8.76C7.67878 10.4633 1.24263 15.5733 1.24263 23.4006C1.24263 32.7689 9.12279 37.4328 20.6336 40.15C30.9479 42.5833 33.0108 46.1522 33.0108 49.9239C33.0108 52.7222 30.9892 57.1833 21.8713 57.1833C13.3723 57.1833 10.0305 53.4522 9.57662 48.6667H0.5C0.995088 57.5483 7.7613 62.5367 15.6827 64.1994V73H28.0599V64.2806C36.1051 62.78 42.5 58.1972 42.5 49.8833C42.5 38.3656 32.4745 34.4317 23.109 32.0389Z" fill="white"/>
</svg>
