<svg width="15" height="23" viewBox="0 0 15 23" fill="none" xmlns="http://www.w3.org/2000/svg">
<path d="M7.5 0.171875C3.35732 0.171875 0 3.52924 0 7.67188C0 11.8998 2.09558 12.8006 4.41177 15.6131C7.18217 18.9772 7.5 22.4513 7.5 22.4513C7.5 22.4513 7.81783 18.9772 10.5882 15.6131C12.9044 12.8006 15 11.8998 15 7.67192C15 3.52924 11.6427 0.171875 7.5 0.171875ZM7.5 10.2638C6.0685 10.2638 4.9081 9.10337 4.9081 7.67192C4.9081 6.24046 6.06854 5.08002 7.5 5.08002C8.93146 5.08002 10.0919 6.24046 10.0919 7.67192C10.0919 9.10337 8.93146 10.2638 7.5 10.2638Z" fill="white"/>
</svg>
