<svg width="68" height="75" viewBox="0 0 68 75" fill="none" xmlns="http://www.w3.org/2000/svg">
<path fill-rule="evenodd" clip-rule="evenodd" d="M31.1823 0.75C31.558 0.375 32.3094 0 33.0608 0C33.8122 0 34.9392 0 35.3149 0.75L40.5746 5.625L47.7127 4.5C49.2155 4.125 50.7182 5.25 51.0939 6.75L52.221 13.5L58.6077 16.5C60.1105 17.25 60.4862 18.75 59.7348 20.25L56.7293 26.25L60.8619 32.25C61.6133 33.75 61.2376 35.25 59.7348 36L53.3481 39L52.221 45.75C51.8453 47.25 50.3425 48.375 48.8398 48L41.7017 46.875L36.442 51.75C35.3149 52.875 33.4365 52.875 32.3094 51.75L27.0497 46.875L19.9116 48C18.4088 48.375 16.9061 47.25 16.5304 45.75L15.4033 39L9.01657 36C7.8895 35.25 7.13812 33.75 7.8895 32.25L10.895 26.25L7.8895 20.25C7.13812 18.75 7.51381 17.25 9.01657 16.5L15.4033 13.5L16.5304 6.75C16.9061 5.25 18.0331 4.125 19.9116 4.5L25.9226 5.625L31.1823 0.75ZM0 64.875L11.6464 41.625L12.7735 46.5C13.5249 49.875 16.9061 52.125 20.2873 51.75L25.547 51L29.3039 54.375L30.0552 55.125L20.2873 75L13.5249 63L0 64.875ZM54.8508 46.5L55.9779 41.625L68 65.25L54.4751 63.375L47.7127 75L37.9448 55.125L38.6961 54.375L42.453 51L47.7127 51.75H48.4641C51.4696 51.75 54.0994 49.5 54.8508 46.5ZM34.5 40C41.9558 40 48 33.9558 48 26.5C48 19.0442 41.9558 13 34.5 13C27.0442 13 21 19.0442 21 26.5C21 33.9558 27.0442 40 34.5 40Z" fill="white"/>
</svg>
