<svg width="65" height="75" viewBox="0 0 65 75" fill="none" xmlns="http://www.w3.org/2000/svg">
<path d="M32.4999 42.0241C37.6409 42.0241 49.7282 35.837 49.7282 21.0119C49.7284 9.40729 48.1619 0 32.4999 0C16.8381 0 15.2716 9.40729 15.2716 21.0121C15.2716 35.837 27.3589 42.0241 32.4999 42.0241ZM17.8465 17.5053C19.0567 15.1648 21.6744 12.4602 27.3041 12.5801C27.3041 12.5801 30.6596 20.7193 47.133 17.0642C47.1995 18.3643 47.2204 19.6908 47.2204 21.0121C47.2204 28.2585 44.0207 32.7485 41.3363 35.239C37.954 38.3774 34.1987 39.5164 32.4999 39.5164C30.8011 39.5164 27.0458 38.3774 23.6635 35.239C20.9791 32.7485 17.7794 28.2585 17.7794 21.0121C17.7796 19.8398 17.7967 18.6635 17.8465 17.5053Z" fill="white"/>
<path d="M64.4847 63.5734C63.6052 58.1042 61.7943 51.0593 58.1624 48.5558C55.6824 46.8459 47.0295 42.2229 43.3345 40.2488L43.2706 40.2147C42.8482 39.989 42.3325 40.0342 41.9558 40.33C40.0202 41.8496 37.8998 42.8738 35.6538 43.3739C35.257 43.4623 34.9314 43.7443 34.7871 44.1242L32.4999 50.153L30.2127 44.1242C30.0684 43.7443 29.7428 43.4623 29.346 43.3739C27.0999 42.8738 24.9796 41.8496 23.044 40.33C22.6673 40.0342 22.1516 39.9888 21.7292 40.2147C18.0782 42.1656 9.31933 46.8828 6.84822 48.5484C2.66742 51.3649 0.839234 61.5586 0.515322 63.5734C0.483144 63.7733 0.501897 63.9777 0.569237 64.1684C0.718833 64.5908 4.55591 74.514 32.4999 74.514C60.4439 74.514 64.281 64.5908 64.4306 64.1684C64.4981 63.9777 64.5169 63.7731 64.4847 63.5734ZM51.6079 60.2361L46.1383 61.9409L40.6687 60.2361V57.2932H51.6079V60.2361Z" fill="white"/>
</svg>
