<svg width="60" height="60" viewBox="0 0 60 60" fill="none" xmlns="http://www.w3.org/2000/svg">
<path d="M58.5466 38.7971L38.791 58.5467C37.8533 59.4776 36.5856 60 35.2643 60C33.943 60 32.6753 59.4776 31.7377 58.5467L3.47039 30.2815C1.36161 27.9309 0.134896 24.9209 0 21.766L0.19355 5.19845C0.21787 3.86756 0.758038 2.59812 1.70018 1.65773C2.64232 0.717334 3.91283 0.179471 5.24385 0.157528L21.7631 0C24.9183 0.142181 27.9272 1.3714 30.2793 3.47913L58.5466 31.7443C59.4775 32.6818 60 33.9495 60 35.2707C60 36.5919 59.4775 37.8595 58.5466 38.7971ZM13.463 10.0503C13.463 9.34531 13.2539 8.65612 12.8622 8.06992C12.4704 7.48371 11.9137 7.02682 11.2623 6.75702C10.6109 6.48722 9.89409 6.41663 9.20256 6.55417C8.51104 6.69172 7.87583 7.03122 7.37727 7.52974C6.87871 8.02827 6.53918 8.66343 6.40163 9.3549C6.26407 10.0464 6.33467 10.7631 6.60449 11.4145C6.87431 12.0658 7.33124 12.6225 7.91748 13.0142C8.50373 13.4059 9.19297 13.615 9.89804 13.615C10.8435 13.615 11.7503 13.2394 12.4188 12.5709C13.0874 11.9024 13.463 10.9957 13.463 10.0503ZM43.1436 43.1224C43.3755 42.8908 43.5595 42.6158 43.685 42.313C43.8105 42.0103 43.8751 41.6858 43.8751 41.358C43.8751 41.0303 43.8105 40.7058 43.685 40.4031C43.5595 40.1003 43.3755 39.8253 43.1436 39.5937L41.3386 37.7889C42.083 36.6479 42.6166 35.3826 42.914 34.0532C43.2313 32.8677 43.2334 31.6198 42.9199 30.4333C42.6065 29.2467 41.9885 28.1627 41.1271 27.2885C39.9015 26.0679 38.2754 25.3324 36.5494 25.2181C35.4103 25.1446 34.2673 25.2741 33.1735 25.6007H33.1645C32.2276 25.8958 31.3344 26.3151 30.5088 26.8474H30.4953C29.7833 27.3119 29.1225 27.8505 28.5238 28.4542C28.1634 28.816 27.7735 29.1473 27.358 29.4444C26.9038 29.7693 26.405 30.027 25.8772 30.2095H25.8681C25.3781 30.3703 24.8603 30.4285 24.3468 30.3805H24.3378C23.8119 30.3384 23.3149 30.1231 22.9244 29.7684C22.6387 29.4462 22.4439 29.0538 22.3601 28.6314C22.2762 28.209 22.3063 27.7719 22.4473 27.365C22.7623 26.1526 23.4001 25.0483 24.2927 24.1694C24.6157 23.8923 24.9621 23.6439 25.328 23.4268L25.463 23.3413C25.9216 23.0608 26.4072 22.827 26.9124 22.6436C27.3803 22.4681 27.8756 22.3767 28.3753 22.3736C29.0367 22.3736 29.6709 22.1109 30.1386 21.6433C30.6062 21.1756 30.8689 20.5414 30.8689 19.8801C30.8689 19.2188 30.6062 18.5846 30.1386 18.117C29.6709 17.6494 29.0367 17.3867 28.3753 17.3867C27.2727 17.3911 26.1753 17.5923 25.1435 17.9808C24.3114 18.2874 23.5134 18.6796 22.7624 19.151L22.7173 19.178L20.9259 17.3777C20.6939 17.146 20.4185 16.9622 20.1155 16.837C19.8125 16.7117 19.4877 16.6473 19.1598 16.6475C18.8319 16.6477 18.5073 16.7125 18.2044 16.8382C17.9016 16.9638 17.6264 17.1479 17.3947 17.3799C17.163 17.6119 16.9793 17.8873 16.854 18.1903C16.7287 18.4933 16.6643 18.818 16.6645 19.1458C16.6647 19.4737 16.7295 19.7983 16.8552 20.1012C16.9809 20.404 17.165 20.6791 17.397 20.9108L19.1434 22.6526C18.4155 23.7568 17.8868 24.98 17.5815 26.2668C17.2556 27.4954 17.2517 28.7873 17.5702 30.0179C17.8887 31.2485 18.5189 32.3763 19.4 33.2926C20.596 34.4637 22.1581 35.1882 23.8246 35.3449C25.0472 35.4703 26.2824 35.3337 27.4481 34.9444C28.4502 34.6075 29.3968 34.1236 30.2568 33.5086C30.8953 33.0507 31.4945 32.5403 32.0482 31.9828C32.3984 31.6312 32.7846 31.3174 33.2005 31.0467C33.6495 30.7593 34.1336 30.5309 34.6409 30.367C35.1493 30.2205 35.6792 30.1626 36.2073 30.196C36.7295 30.2316 37.2215 30.4536 37.5937 30.8216C37.8187 31.0422 38.3364 31.5643 38.0303 33.018C37.7219 34.2609 37.079 35.3957 36.1713 36.2991C35.7754 36.6574 35.3542 36.9869 34.911 37.2848C34.4765 37.5656 34.0151 37.8023 33.5336 37.9914C33.0753 38.1679 32.5816 38.2327 32.0933 38.1805C31.7664 38.1568 31.438 38.1978 31.127 38.301C30.816 38.4043 30.5283 38.5678 30.2804 38.7822C30.0326 38.9966 29.8294 39.2577 29.6824 39.5506C29.5355 39.8435 29.4477 40.1625 29.4241 40.4894C29.4004 40.8162 29.4414 41.1445 29.5446 41.4556C29.6479 41.7666 29.8114 42.0542 30.0258 42.3021C30.2402 42.5499 30.5014 42.7531 30.7943 42.9C31.0873 43.0469 31.4063 43.1347 31.7332 43.1584C31.9672 43.1764 32.1968 43.1809 32.4173 43.1809C33.4755 43.1923 34.5248 42.987 35.5006 42.5778C36.3027 42.2557 37.0678 41.8483 37.7827 41.3625L37.8277 41.331L39.6147 43.1224C40.0828 43.5882 40.7164 43.8497 41.3769 43.8497C42.0374 43.8497 42.6709 43.5882 43.1391 43.1224H43.1436Z" fill="url(#paint0_linear_47_9645)"/>
<defs>
<linearGradient id="paint0_linear_47_9645" x1="30" y1="0" x2="30" y2="60" gradientUnits="userSpaceOnUse">
<stop stop-color="#30A46C"/>
<stop offset="1" stop-color="#23764E"/>
</linearGradient>
</defs>
</svg>
