<svg width="15" height="16" viewBox="0 0 15 16" fill="none" xmlns="http://www.w3.org/2000/svg">
<path d="M0.00441444 2.71774C-0.0712531 1.64578 0.83648 0.811523 1.90891 0.811523H4.20454C4.75504 0.811523 5.25155 1.14321 5.46328 1.65241L6.42322 3.96108C6.65707 4.52346 6.4911 5.17305 6.01635 5.55365L5.41795 6.03336C5.15091 6.24744 5.06012 6.61658 5.21845 6.92004C6.03217 8.4795 7.2348 9.803 8.6973 10.7614C9.006 10.9637 9.41377 10.8832 9.6441 10.5948L10.2676 9.81365C10.6474 9.33793 11.2957 9.17166 11.8569 9.40596L14.1608 10.3679C14.669 10.5801 15 11.0776 15 11.6292V13.9363C15 15.011 14.1367 15.8829 13.0669 15.8069C6.22657 15.3202 0.48935 9.58768 0.00441444 2.71774Z" fill="white"/>
</svg>
