<svg width="60" height="67" viewBox="0 0 60 67" fill="none" xmlns="http://www.w3.org/2000/svg">
<path d="M29.9966 0V23.7261C34.0067 25.0628 36.68 28.7387 36.68 33.0829C36.68 34.7537 36.3459 36.4246 35.3434 37.7613L42.0268 43.108C42.3609 43.108 42.6951 42.7738 43.3635 42.7738C45.3685 42.7738 46.7052 44.1105 46.7052 46.1155C46.7052 48.1205 45.3685 49.4572 43.3635 49.4572C41.3584 49.4572 40.0218 48.1205 40.0218 46.1155V45.7814L33.3383 40.4346C31.6675 42.1055 29.3283 43.108 26.6549 43.108C20.974 43.108 16.6298 38.7638 16.6298 33.0829C16.6298 28.7387 19.3032 25.0628 23.3132 23.7261V0.33417H22.9791C11.2831 1.67085 1.59216 11.3618 0.255474 23.3919C-0.747037 30.7437 1.25799 37.4271 5.26803 42.7738C8.27556 46.7839 9.94642 51.1281 9.94642 56.1406V66.8341H40.0218V56.809H46.7052C50.381 56.809 53.3886 53.8014 53.3886 50.1256V40.1005L58.4011 38.0954C59.7378 37.4271 60.4061 35.4221 59.7378 34.0854L53.3886 24.0603C52.0519 11.696 42.3609 1.67085 29.9966 0ZM26.6549 28.4045C23.9816 28.4045 21.6424 30.7437 21.6424 33.417C21.6424 36.0904 23.9816 38.4296 26.6549 38.4296C29.3283 38.4296 31.6675 36.0904 31.6675 33.417C31.6675 30.7437 29.3283 28.4045 26.6549 28.4045Z" fill="url(#paint0_linear_47_9640)"/>
<defs>
<linearGradient id="paint0_linear_47_9640" x1="30" y1="0" x2="30" y2="66.8341" gradientUnits="userSpaceOnUse">
<stop stop-color="#30A46C"/>
<stop offset="1" stop-color="#23764E"/>
</linearGradient>
</defs>
</svg>
