<svg width="241" height="134" viewBox="0 0 241 134" fill="none" xmlns="http://www.w3.org/2000/svg">
<path d="M76.84 73.78V81H72.28V57.174H80.678C84.1993 57.174 86.7073 57.7947 88.202 59.036C89.722 60.2773 90.482 62.342 90.482 65.23C90.482 68.1433 89.684 70.2967 88.088 71.69C86.5173 73.0833 84.0853 73.78 80.792 73.78H76.84ZM85.846 65.23C85.846 63.786 85.4533 62.7727 84.668 62.19C83.908 61.582 82.578 61.278 80.678 61.278H76.84V69.79H80.678C82.578 69.79 83.908 69.448 84.668 68.764C85.4533 68.0547 85.846 66.8767 85.846 65.23ZM97.2793 81.342C95.3539 81.342 93.9353 80.8733 93.0233 79.936C92.1366 78.9733 91.6933 77.4787 91.6933 75.452C91.6933 73.3747 92.2253 71.9053 93.2892 71.044C94.3786 70.1827 96.2406 69.752 98.8753 69.752C99.6099 69.752 100.357 69.79 101.117 69.866C101.877 69.942 102.536 70.0433 103.093 70.17V68.574C103.093 67.586 102.789 66.864 102.181 66.408C101.573 65.952 100.611 65.724 99.2933 65.724C98.1026 65.724 97.0386 65.762 96.1013 65.838C95.1893 65.914 94.3153 66.0407 93.4793 66.218V62.532C94.4419 62.304 95.4806 62.1393 96.5953 62.038C97.7353 61.9113 99.0779 61.848 100.623 61.848C102.929 61.848 104.651 62.38 105.791 63.444C106.931 64.4827 107.501 66.0533 107.501 68.156V81H103.435L103.245 79.328H103.169C102.359 79.936 101.421 80.43 100.357 80.81C99.3186 81.1647 98.2926 81.342 97.2793 81.342ZM99.4073 72.906C98.0393 72.906 97.1019 73.0707 96.5953 73.4C96.0886 73.704 95.8353 74.2993 95.8353 75.186C95.8353 76.0473 96.0379 76.668 96.4433 77.048C96.8739 77.4027 97.5959 77.58 98.6093 77.58C99.3439 77.58 100.117 77.4787 100.927 77.276C101.763 77.048 102.485 76.7693 103.093 76.44V73.21C102.485 73.1087 101.877 73.0327 101.269 72.982C100.687 72.9313 100.066 72.906 99.4073 72.906ZM113.257 83.318C114.194 83.318 114.891 83.1407 115.347 82.786C115.803 82.4567 116.196 81.7473 116.525 80.658L109.153 62.228H114.093L118.767 76.326L123.213 62.228H127.963L120.781 81.836C120.072 83.7613 119.198 85.1293 118.159 85.94C117.146 86.7507 115.803 87.156 114.131 87.156C113.624 87.156 113.105 87.1307 112.573 87.08C112.041 87.0293 111.572 86.966 111.167 86.89V83.204C111.37 83.2547 111.61 83.28 111.889 83.28C112.168 83.3053 112.624 83.318 113.257 83.318ZM134.648 81H130.24V62.228H134.306L134.496 63.634H134.61C135.598 63.026 136.536 62.5827 137.422 62.304C138.334 62 139.221 61.848 140.082 61.848C141.121 61.848 142.008 62.0127 142.742 62.342C143.502 62.646 144.11 63.1273 144.566 63.786H144.68C145.618 63.178 146.631 62.7093 147.72 62.38C148.835 62.0253 149.924 61.848 150.988 61.848C152.812 61.848 154.18 62.342 155.092 63.33C156.004 64.318 156.46 65.7873 156.46 67.738V81H152.052V68.308C152.052 67.4467 151.812 66.8133 151.33 66.408C150.874 66.0027 150.14 65.8 149.126 65.8C148.518 65.8 147.898 65.876 147.264 66.028C146.631 66.18 146.048 66.3827 145.516 66.636C145.542 66.7627 145.554 66.902 145.554 67.054C145.554 67.206 145.554 67.434 145.554 67.738V81H141.146V68.308C141.146 67.4467 140.906 66.8133 140.424 66.408C139.968 66.0027 139.234 65.8 138.22 65.8C137.688 65.8 137.118 65.876 136.51 66.028C135.928 66.1547 135.307 66.37 134.648 66.674V81ZM164.893 81.342C162.967 81.342 161.549 80.8733 160.637 79.936C159.75 78.9733 159.307 77.4787 159.307 75.452C159.307 73.3747 159.839 71.9053 160.903 71.044C161.992 70.1827 163.854 69.752 166.489 69.752C167.223 69.752 167.971 69.79 168.731 69.866C169.491 69.942 170.149 70.0433 170.707 70.17V68.574C170.707 67.586 170.403 66.864 169.795 66.408C169.187 65.952 168.224 65.724 166.907 65.724C165.716 65.724 164.652 65.762 163.715 65.838C162.803 65.914 161.929 66.0407 161.093 66.218V62.532C162.055 62.304 163.094 62.1393 164.209 62.038C165.349 61.9113 166.691 61.848 168.237 61.848C170.542 61.848 172.265 62.38 173.405 63.444C174.545 64.4827 175.115 66.0533 175.115 68.156V81H171.049L170.859 79.328H170.783C169.972 79.936 169.035 80.43 167.971 80.81C166.932 81.1647 165.906 81.342 164.893 81.342ZM167.021 72.906C165.653 72.906 164.715 73.0707 164.209 73.4C163.702 73.704 163.449 74.2993 163.449 75.186C163.449 76.0473 163.651 76.668 164.057 77.048C164.487 77.4027 165.209 77.58 166.223 77.58C166.957 77.58 167.73 77.4787 168.541 77.276C169.377 77.048 170.099 76.7693 170.707 76.44V73.21C170.099 73.1087 169.491 73.0327 168.883 72.982C168.3 72.9313 167.679 72.906 167.021 72.906ZM186.218 65.648C184.875 65.648 183.95 65.7873 183.444 66.066C182.962 66.3193 182.722 66.8893 182.722 67.776C182.722 68.2067 182.823 68.536 183.026 68.764C183.228 68.9667 183.57 69.106 184.052 69.182L188.726 69.866C190.22 70.0687 191.259 70.5373 191.842 71.272C192.45 72.0067 192.754 73.172 192.754 74.768C192.754 77.0733 192.222 78.7453 191.158 79.784C190.094 80.8227 188.282 81.342 185.724 81.342C184.254 81.342 182.912 81.2787 181.696 81.152C180.48 81.0253 179.454 80.8353 178.618 80.582V76.668C179.403 76.8707 180.366 77.048 181.506 77.2C182.646 77.3267 183.798 77.39 184.964 77.39C186.281 77.39 187.168 77.2253 187.624 76.896C188.105 76.5667 188.346 75.946 188.346 75.034C188.346 74.578 188.232 74.236 188.004 74.008C187.776 73.7547 187.396 73.59 186.864 73.514L182.114 72.83C180.822 72.6527 179.872 72.1713 179.264 71.386C178.656 70.5753 178.352 69.41 178.352 67.89C178.352 65.838 178.972 64.318 180.214 63.33C181.48 62.342 183.393 61.848 185.952 61.848C186.99 61.848 187.94 61.8733 188.802 61.924C189.663 61.9747 190.55 62.076 191.462 62.228V65.99C190.803 65.8887 190.005 65.8127 189.068 65.762C188.156 65.686 187.206 65.648 186.218 65.648ZM207.406 76.896V80.658C206.976 80.8353 206.368 80.9873 205.582 81.114C204.822 81.266 204.126 81.342 203.492 81.342C201.086 81.342 199.363 80.8227 198.324 79.784C197.286 78.72 196.766 76.9593 196.766 74.502V65.914H194.258V62.228H196.88L197.488 57.744H201.174V62.228H207.178V65.914H201.174V74.35C201.174 75.4647 201.415 76.2247 201.896 76.63C202.378 77.0353 203.239 77.238 204.48 77.238C204.911 77.238 205.418 77.2127 206 77.162C206.583 77.086 207.052 76.9973 207.406 76.896ZM224.549 76.402V79.974C223.915 80.354 222.915 80.6833 221.547 80.962C220.204 81.2153 218.798 81.342 217.329 81.342C214.339 81.342 212.186 80.582 210.869 79.062C209.577 77.542 208.931 75.034 208.931 71.538C208.931 68.1687 209.615 65.7113 210.983 64.166C212.351 62.6207 214.517 61.848 217.481 61.848C220.343 61.848 222.37 62.4433 223.561 63.634C224.751 64.8247 225.347 66.864 225.347 69.752C225.347 70.284 225.334 70.778 225.309 71.234C225.283 71.6647 225.233 72.2727 225.157 73.058H213.377C213.402 74.6287 213.744 75.7307 214.403 76.364C215.087 76.9973 216.29 77.314 218.013 77.314C219.153 77.314 220.331 77.2253 221.547 77.048C222.763 76.8707 223.763 76.6553 224.549 76.402ZM217.481 65.686C215.935 65.686 214.859 65.99 214.251 66.598C213.668 67.206 213.377 68.308 213.377 69.904H221.319V69.106C221.293 67.814 221.002 66.9273 220.445 66.446C219.887 65.9393 218.899 65.686 217.481 65.686ZM233.1 81H228.692V62.228H232.758L232.948 63.748H233.062C233.999 63.1907 234.949 62.76 235.912 62.456C236.874 62.152 237.812 62 238.724 62C238.977 62 239.142 62 239.218 62C239.319 62 239.395 62.0127 239.446 62.038V66.294C239.294 66.2433 239.091 66.218 238.838 66.218C238.61 66.1927 238.204 66.18 237.622 66.18C236.735 66.18 235.912 66.256 235.152 66.408C234.392 66.56 233.708 66.7753 233.1 67.054V81Z" fill="#21262A"/>
<path d="M153.784 99H150.959V90.2727H153.874C154.729 90.2727 155.463 90.4474 156.077 90.7969C156.69 91.1435 157.161 91.642 157.487 92.2926C157.817 92.9403 157.982 93.7173 157.982 94.6236C157.982 95.5327 157.815 96.3139 157.483 96.9673C157.153 97.6207 156.676 98.1236 156.051 98.4759C155.426 98.8253 154.67 99 153.784 99ZM152.276 97.8494H153.712C154.376 97.8494 154.929 97.7244 155.369 97.4744C155.81 97.2216 156.139 96.8565 156.358 96.3793C156.577 95.8991 156.686 95.3139 156.686 94.6236C156.686 93.9389 156.577 93.358 156.358 92.8807C156.142 92.4034 155.82 92.0412 155.391 91.794C154.962 91.5469 154.429 91.4233 153.793 91.4233H152.276V97.8494ZM167.056 90.2727V99H165.739V90.2727H167.056ZM181 93.0298C180.917 92.7713 180.806 92.5398 180.667 92.3352C180.531 92.1278 180.367 91.9517 180.177 91.8068C179.987 91.6591 179.769 91.5469 179.525 91.4702C179.284 91.3935 179.018 91.3551 178.728 91.3551C178.237 91.3551 177.794 91.4815 177.399 91.7344C177.004 91.9872 176.691 92.358 176.461 92.8466C176.234 93.3324 176.12 93.9276 176.12 94.6321C176.12 95.3395 176.235 95.9375 176.465 96.4261C176.696 96.9148 177.011 97.2855 177.412 97.5384C177.812 97.7912 178.268 97.9176 178.779 97.9176C179.254 97.9176 179.667 97.821 180.019 97.6278C180.375 97.4347 180.649 97.1619 180.842 96.8097C181.038 96.4545 181.136 96.0369 181.136 95.5568L181.477 95.6207H178.98V94.5341H182.41V95.527C182.41 96.2599 182.254 96.8963 181.941 97.4361C181.632 97.973 181.203 98.3878 180.654 98.6804C180.109 98.973 179.484 99.1193 178.779 99.1193C177.99 99.1193 177.296 98.9375 176.7 98.5739C176.106 98.2102 175.643 97.6946 175.311 97.027C174.978 96.3565 174.812 95.5611 174.812 94.6406C174.812 93.9446 174.909 93.3196 175.102 92.7656C175.295 92.2116 175.566 91.7415 175.916 91.3551C176.268 90.9659 176.681 90.669 177.156 90.4645C177.633 90.2571 178.154 90.1534 178.72 90.1534C179.191 90.1534 179.63 90.223 180.037 90.3622C180.446 90.5014 180.809 90.6989 181.127 90.9545C181.448 91.2102 181.714 91.5142 181.924 91.8665C182.135 92.2159 182.277 92.6037 182.35 93.0298H181ZM191.518 90.2727V99H190.202V90.2727H191.518ZM199.126 91.4062V90.2727H205.88V91.4062H203.157V99H201.844V91.4062H199.126ZM213.198 99H211.801L214.941 90.2727H216.463L219.603 99H218.205L215.738 91.858H215.67L213.198 99ZM213.433 95.5824H217.967V96.6903H213.433V95.5824ZM226.983 99V90.2727H228.3V97.8665H232.255V99H226.983Z" fill="#21262A"/>
<path d="M27 106.5V79L0 106.5V134L27 106.5Z" fill="#23764E"/>
<path d="M51 51V0L0 51V102L51 51Z" fill="#30A46C"/>
</svg>
